#!OML:ASF H:\GeneralSubjects\Female5\Project 1\Capture day 1\Session 1\Female5.ASF
:FULLY-SPECIFIED
:DEGREES
501
root -23.6314 15.9168 -0.889394 -169.127 -29.5849 -181.1
lowerback 7.89346 2.56307 1.3896
upperback -10.6646 2.36636 -4.67245
thorax -16.1569 0.229117 -6.52291
lowerneck -14.2514 -9.54506 -3.91555
upperneck 27.5021 -15.0896 3.57571
head 11.9628 -7.22879 -0.353294
rclavicle -8.38871e-014 -3.81667e-014
rhumerus -45.9194 18.0726 -91.7879
rradius 27.9494
rwrist -13.8579
rhand -23.9332 -19.3557
rfingers 7.12502
rthumb 2.54191 -49.3203
lclavicle -8.38871e-014 -3.81667e-014
lhumerus -37.8873 -26.5047 90.4529
lradius 47.8506
lwrist -3.70586
lhand -27.9651 31.0743
lfingers 7.12502
lthumb -1.35217 61.0498
rfemur -23.802 -7.30386 21.0305
rtibia 49.6338
rfoot -19.0921 -15.4466
rtoes -20.1698
lfemur 8.47664 -37.3327 -44.5393
ltibia -10.5952
lfoot -59.5242 32.8073
ltoes -50.8951
502
root -23.6158 15.9263 -0.980396 -168.89 -31.3424 -181.262
lowerback 8.06469 2.27377 1.07246
upperback -10.6014 1.95667 -4.53488
thorax -16.2564 0.0944043 -6.10874
lowerneck -14.2732 -9.82882 -4.13895
upperneck 26.7153 -15.2843 3.7054
head 11.7006 -7.30513 -0.274308
rclavicle -6.81831e-014 -2.54444e-014
rhumerus -46.5813 17.3598 -91.2187
rradius 28.0944
rwrist -14.6665
rhand -23.8707 -19.2751
rfingers 7.12502
rthumb 2.60223 -49.2389
lclavicle -6.81831e-014 -2.54444e-014
lhumerus -37.1748 -27.0425 90.7294
lradius 48.4251
lwrist -3.46929
lhand -27.8902 30.9649
lfingers 7.12502
lthumb -1.27986 60.9408
rfemur -25.2475 -5.30429 20.7465
rtibia 47.8827
rfoot -20.8909 -16.8792
rtoes -21.9926
lfemur 8.90428 -38.1896 -44.7399
ltibia -10.5242
lfoot -58.8382 33.0199
ltoes -50.6354
503
root -23.5946 15.9332 -1.07326 -168.612 -33.1258 -181.428
lowerback 8.26807 2.00673 0.705838
upperback -10.5447 1.57201 -4.37652
thorax -16.377 -0.0204543 -5.64764
lowerneck -14.282 -10.1092 -4.3898
upperneck 25.9415 -15.4739 3.83027
head 11.4471 -7.38391 -0.193066
rclavicle 8.94531e-015 7.95139e-016
rhumerus -47.2009 16.8775 -90.7623
rradius 28.0304
rwrist -15.1601
rhand -23.8162 -19.1871
rfingers 7.12502
rthumb 2.65483 -49.1503
lclavicle 8.94531e-015 7.95139e-016
lhumerus -36.4794 -27.5373 91.0074
lradius 48.7984
lwrist -3.24145
lhand -27.8022 30.8842
lfingers 7.12502
lthumb -1.19487 60.8606
rfemur -26.568 -2.97619 20.2209
rtibia 45.6744
rfoot -22.0773 -18.0377
rtoes -22.9901
lfemur 9.18244 -39.0814 -44.8101
ltibia -10.3373
lfoot -58.0351 33.2714
ltoes -50.4233
504
root -23.5702 15.9382 -1.16975 -168.328 -34.8993 -181.571
lowerback 8.48513 1.77459 0.335311
upperback -10.4926 1.23781 -4.19635
thorax -16.5005 -0.108009 -5.16869
lowerneck -14.2939 -10.3861 -4.6715
upperneck 25.2395 -15.6575 3.91845
head 11.2245 -7.46768 -0.122938
rclavicle -4.69132e-014 -1.63003e-013
rhumerus -47.7813 16.6294 -90.435
rradius 27.7626
rwrist -15.3328
rhand -23.7371 -19.1029
rfingers 7.12502
rthumb 2.73125 -49.0652
lclavicle -4.69132e-014 -1.63003e-013
lhumerus -35.7975 -27.9756 91.284
lradius 48.9448
lwrist -3.07965
lhand -27.7946 30.8266
lfingers 7.12502
lthumb -1.18756 60.8031
rfemur -27.7258 -0.326806 19.4472
rtibia 43.0301
rfoot -22.6807 -18.9286
rtoes -23.8629
lfemur 9.3895 -39.9642 -44.7701
ltibia -10.1142
lfoot -57.1853 33.4968
ltoes -50.3993
505
root -23.5456 15.9418 -1.27138 -168.05 -36.6222 -181.673
lowerback 8.66621 1.58962 -0.0018454
upperback -10.4464 0.976759 -3.99717
thorax -16.5939 -0.162111 -4.6995
lowerneck -14.3335 -10.6607 -4.99519
upperneck 24.6759 -15.835 3.93958
head 11.0596 -7.55897 -0.0762498
rclavicle 9.8796e-014 -3.18055e-014
rhumerus -48.3078 16.6212 -90.2521
rradius 27.3003
rwrist -15.2299
rhand -23.5644 -19.0765
rfingers 7.12502
rthumb 2.89801 -49.0366
lclavicle 9.8796e-014 -3.18055e-014
lhumerus -35.1347 -28.3454 91.5562
lradius 48.8521
lwrist -3.00635
lhand -27.8203 30.786
lfingers 7.12502
lthumb -1.21236 60.7623
rfemur -28.7263 2.5965 18.4114
rtibia 40.0162
rfoot -22.9088 -19.2607
rtoes -23.9836
lfemur 9.5691 -40.7971 -44.6352
ltibia -9.90901
lfoot -56.4932 33.5775
ltoes -50.6103
506
root -23.524 15.9444 -1.37898 -167.782 -38.2661 -181.764
lowerback 8.78928 1.45406 -0.303849
upperback -10.4083 0.790433 -3.78784
thorax -16.6478 -0.184005 -4.25205
lowerneck -14.3724 -10.9135 -5.36013
upperneck 24.2743 -15.9778 3.87156
head 10.9502 -7.64808 -0.0549129
rclavicle -1.90833e-014 9.54166e-015
rhumerus -48.8061 16.8288 -90.1961
rradius 26.6696
rwrist -14.8825
rhand -23.2304 -19.0087
rfingers 7.12502
rthumb 3.22064 -48.9641
lclavicle -1.90833e-014 9.54166e-015
lhumerus -34.528 -28.6043 91.8263
lradius 48.5346
lwrist -3.0334
lhand -27.8099 30.7326
lfingers 7.12502
lthumb -1.20226 60.709
rfemur -29.6084 5.7304 17.1075
rtibia 36.7503
rfoot -22.7173 -19.1192
rtoes -24.319
lfemur 9.76681 -41.5521 -44.4741
ltibia -9.73801
lfoot -55.947 33.563
ltoes -50.8902
507
root -23.5083 15.9456 -1.49375 -167.504 -39.8188 -181.878
lowerback 8.81018 1.36533 -0.59144
upperback -10.3777 0.670882 -3.57541
thorax -16.6356 -0.176067 -3.82027
lowerneck -14.4174 -11.1186 -5.73934
upperneck 24.0633 -16.0532 3.69246
head 10.9011 -7.72006 -0.0663154
rclavicle 6.07287e-014 -1.11319e-014
rhumerus -49.2518 17.2148 -90.2369
rradius 25.8847
rwrist -14.3436
rhand -22.6998 -18.8806
rfingers 7.12502
rthumb 3.73295 -48.8277
lclavicle 6.07287e-014 -1.11319e-014
lhumerus -34.0024 -28.7074 92.0897
lradius 48.0169
lwrist -3.15961
lhand -27.7752 30.6705
lfingers 7.12502
lthumb -1.16876 60.647
rfemur -30.4296 8.95906 15.5523
rtibia 33.3714
rfoot -22.15 -18.5106
rtoes -26.0435
lfemur 10.0074 -42.2216 -44.3379
ltibia -9.60255
lfoot -55.5023 33.5227
ltoes -51.1592
508
root -23.4998 15.9446 -1.61533 -167.206 -41.2968 -182.044
lowerback 8.72765 1.31194 -0.866698
upperback -10.3555 0.601122 -3.36588
thorax -16.5608 -0.147423 -3.40712
lowerneck -14.4767 -11.2449 -6.10651
upperneck 24.0674 -16.024 3.396
head 10.9172 -7.7572 -0.111986
rclavicle 2.73329e-014 3.26007e-014
rhumerus -49.6546 17.7656 -90.3579
rradius 24.9986
rwrist -13.6896
rhand -21.9888 -18.7372
rfingers 7.12502
rthumb 4.41956 -48.6711
lclavicle 2.73329e-014 3.26007e-014
lhumerus -33.5886 -28.6176 92.3407
lradius 47.3424
lwrist -3.37703
lhand -27.7309 30.655
lfingers 7.12502
lthumb -1.12601 60.6317
rfemur -31.2121 12.1227 13.79
rtibia 30.0199
rfoot -21.3297 -17.3453
rtoes -27.5558
lfemur 10.3037 -42.822 -44.2655
ltibia -9.47676
lfoot -55.1609 33.4836
ltoes -51.5608
509
root -23.4984 15.9416 -1.74325 -166.887 -42.7542 -182.294
lowerback 8.57173 1.27142 -1.13645
upperback -10.3403 0.548267 -3.16457
thorax -16.4449 -0.113646 -3.00909
lowerneck -14.5487 -11.2654 -6.43413
upperneck 24.2939 -15.8594 2.98605
head 10.9976 -7.74482 -0.190221
rclavicle -8.15017e-015 -5.48646e-014
rhumerus -50.0176 18.4577 -90.5524
rradius 24.1301
rwrist -13.0401
rhand -21.0526 -19.0153
rfingers 7.12502
rthumb 5.32353 -48.9284
lclavicle -8.15017e-015 -5.48646e-014
lhumerus -33.3254 -28.3098 92.5714
lradius 46.5696
lwrist -3.67214
lhand -27.6871 30.7151
lfingers 7.12502
lthumb -1.08373 60.692
rfemur -31.9039 15.0081 11.9366
rtibia 26.8451
rfoot -20.4131 -15.497
rtoes -27.8978
lfemur 10.677 -43.3947 -44.2842
ltibia -9.33825
lfoot -54.7014 33.4838
ltoes -51.8964
510
root -23.5042 15.9362 -1.8779 -166.553 -44.2203 -182.646
lowerback 8.38111 1.2304 -1.39944
upperback -10.3351 0.491163 -2.98415
thorax -16.3187 -0.0865329 -2.63818
lowerneck -14.6384 -11.1654 -6.69016
upperneck 24.7396 -15.5508 2.48698
head 11.1425 -7.67607 -0.296919
rclavicle -1.0635e-014 -1.11319e-014
rhumerus -50.35 19.2193 -90.7929
rradius 23.2603
rwrist -12.3765
rhand -20.0625 -19.3796
rfingers 7.12502
rthumb 6.2795 -49.2665
lclavicle -1.0635e-014 -1.11319e-014
lhumerus -33.2461 -27.7871 92.7585
lradius 45.7382
lwrist -4.00369
lhand -27.6621 30.8283
lfingers 7.12502
lthumb -1.05956 60.8054
rfemur -32.4122 17.3773 10.1911
rtibia 24.004
rfoot -18.8007 -13.6143
rtoes -26.8376
lfemur 11.1485 -43.9591 -44.4147
ltibia -9.16622
lfoot -54.1839 33.5456
ltoes -52.3834
511
root -23.5158 15.9269 -2.01984 -166.196 -45.6886 -183.087
lowerback 8.16057 1.19362 -1.67093
upperback -10.3523 0.43246 -2.82384
thorax -16.201 -0.0636197 -2.28595
lowerneck -14.8201 -10.8892 -7.11012
upperneck 25.608 -15.0548 2.15315
head 11.4894 -7.52418 -0.318229
rclavicle -5.36719e-014 -6.99722e-014
rhumerus -50.6558 19.9763 -91.0331
rradius 22.4714
rwrist -11.7489
rhand -19.0446 -19.9397
rfingers 7.12502
rthumb 7.26212 -49.7951
lclavicle -5.36719e-014 -6.99722e-014
lhumerus -33.3544 -27.0563 92.8864
lradius 44.8594
lwrist -4.34149
lhand -27.6531 30.9615
lfingers 7.12502
lthumb -1.05089 60.9387
rfemur -32.6779 19.0868 8.76703
rtibia 21.7546
rfoot -17.0549 -11.7641
rtoes -23.9624
lfemur 11.6767 -44.5133 -44.6133
ltibia -8.94246
lfoot -53.5982 33.6776
ltoes -53.0801
512
root -23.5334 15.9145 -2.16912 -165.87 -47.1762 -183.579
lowerback 7.9464 1.15723 -1.93038
upperback -10.3846 0.372518 -2.67615
thorax -16.1059 -0.0455272 -1.95627
lowerneck -15.1012 -10.449 -7.5837
upperneck 26.7815 -14.3808 1.95306
head 11.9885 -7.29193 -0.273284
rclavicle -5.725e-014 -6.48038e-014
rhumerus -50.9125 20.6322 -91.1871
rradius 21.786
rwrist -11.1043
rhand -18.0983 -20.5659
rfingers 7.12502
rthumb 8.17543 -50.3878
lclavicle -5.725e-014 -6.48038e-014
lhumerus -33.6303 -26.1113 92.9373
lradius 43.9182
lwrist -4.67903
lhand -27.6413 31.0815
lfingers 7.12502
lthumb -1.03944 61.0587
rfemur -32.5458 20.024 7.88935
rtibia 20.1558
rfoot -15.1696 -10.628
rtoes -20.727
lfemur 12.2763 -45.0598 -44.8659
ltibia -8.62969
lfoot -52.9147 33.86
ltoes -53.9182
513
root -23.5563 15.8999 -2.32549 -165.645 -48.6649 -184.038
lowerback 7.74535 1.12951 -2.15115
upperback -10.4238 0.331182 -2.52388
thorax -16.0269 -0.0235698 -1.64864
lowerneck -15.4316 -9.86473 -8.07739
upperneck 28.0989 -13.5578 1.93629
head 12.5754 -6.98706 -0.13754
rclavicle 2.25621e-014 3.10104e-014
rhumerus -51.0718 21.0967 -91.1652
rradius 21.2078
rwrist -10.3916
rhand -17.3468 -21.1136
rfingers 7.12502
rthumb 8.90075 -50.9059
lclavicle 2.25621e-014 3.10104e-014
lhumerus -34.0257 -24.9465 92.8854
lradius 42.8687
lwrist -5.00413
lhand -27.6322 31.175
lfingers 7.12502
lthumb -1.03069 61.1523
rfemur -31.9006 20.2457 7.67813
rtibia 19.0754
rfoot -13.4626 -10.2635
rtoes -18.0789
lfemur 12.932 -45.57 -45.1085
ltibia -8.20414
lfoot -52.1979 33.9817
ltoes -54.7552
514
root -23.5834 15.8854 -2.48785 -165.595 -50.1406 -184.377
lowerback 7.57008 1.11502 -2.31132
upperback -10.4611 0.321957 -2.34881
thorax -15.9607 0.00848741 -1.35746
lowerneck -15.7591 -9.18962 -8.48945
upperneck 29.3609 -12.6477 2.05162
head 13.1505 -6.63197 0.0626817
rclavicle 7.50412e-014 -2.74323e-014
rhumerus -51.0895 21.3293 -90.9173
rradius 20.7352
rwrist -9.63302
rhand -16.9509 -21.4976
rfingers 7.12502
rthumb 9.28274 -51.2733
lclavicle 7.50412e-014 -2.74323e-014
lhumerus -34.4821 -23.548 92.7001
lradius 41.6592
lwrist -5.29617
lhand -27.6336 31.2717
lfingers 7.12502
lthumb -1.03203 61.2489
rfemur -30.6818 19.9764 8.07618
rtibia 18.2146
rfoot -12.2602 -10.511
rtoes -16.4999
lfemur 13.6051 -46.0222 -45.2634
ltibia -7.64238
lfoot -51.4883 34.0247
ltoes -55.522
515
root -23.6129 15.8747 -2.6545 -165.802 -51.5964 -184.501
lowerback 7.44247 1.11362 -2.38808
upperback -10.4866 0.352094 -2.12885
thorax -15.9097 0.0541077 -1.07218
lowerneck -16.0194 -8.50113 -8.71167
upperneck 30.3789 -11.7368 2.1876
head 13.6049 -6.26091 0.265565
rclavicle 3.36443e-014 1.11319e-014
rhumerus -50.937 21.3094 -90.4087
rradius 20.3951
rwrist -8.90422
rhand -17.048 -21.7453
rfingers 7.12502
rthumb 9.18901 -51.5251
lclavicle 3.36443e-014 1.11319e-014
lhumerus -34.9565 -21.8779 92.3494
lradius 40.257
lwrist -5.54282
lhand -27.6544 31.4007
lfingers 7.12502
lthumb -1.05212 61.3778
rfemur -28.9076 19.4857 8.95349
rtibia 17.2558
rfoot -11.6716 -11.1918
rtoes -15.7349
lfemur 14.2433 -46.4025 -45.235
ltibia -6.92604
lfoot -50.8357 33.9703
ltoes -56.1917
